<svg width="24" height="25" viewBox="0 0 24 25" fill="none" xmlns="http://www.w3.org/2000/svg">
<path d="M11 5.50114H6C5.46957 5.50114 4.96086 5.71185 4.58579 6.08693C4.21071 6.462 4 6.97071 4 7.50114V18.5011C4 19.0316 4.21071 19.5403 4.58579 19.9154C4.96086 20.2904 5.46957 20.5011 6 20.5011H17C17.5304 20.5011 18.0391 20.2904 18.4142 19.9154C18.7893 19.5403 19 19.0316 19 18.5011V13.5011M17.586 4.08714C17.7705 3.89612 17.9912 3.74375 18.2352 3.63894C18.4792 3.53412 18.7416 3.47895 19.0072 3.47664C19.2728 3.47433 19.5361 3.52493 19.7819 3.6255C20.0277 3.72606 20.251 3.87456 20.4388 4.06235C20.6266 4.25013 20.7751 4.47344 20.8756 4.71923C20.9762 4.96502 21.0268 5.22838 21.0245 5.49394C21.0222 5.7595 20.967 6.02194 20.8622 6.26595C20.7574 6.50996 20.605 6.73065 20.414 6.91514L11.828 15.5011H9V12.6731L17.586 4.08714Z" stroke="#94A3B8" stroke-width="2" stroke-linecap="round" stroke-linejoin="round"/>
</svg>
